<svg width="35" height="35" viewBox="0 0 35 35" fill="none" xmlns="http://www.w3.org/2000/svg">
<path d="M11.6673 30.625C12.4409 30.625 13.1827 30.3177 13.7297 29.7707C14.2767 29.2237 14.584 28.4819 14.584 27.7083V18.9583C14.584 18.1848 14.2767 17.4429 13.7297 16.8959C13.1827 16.349 12.4409 16.0417 11.6673 16.0417C11.2805 16.0417 10.9096 15.888 10.6361 15.6145C10.3626 15.341 10.209 14.9701 10.209 14.5833V13.125C10.209 12.3515 10.5163 11.6096 11.0633 11.0626C11.6102 10.5156 12.3521 10.2083 13.1257 10.2083C13.5124 10.2083 13.8834 10.0547 14.1568 9.7812C14.4303 9.50771 14.584 9.13677 14.584 8.75V5.83333C14.584 5.44656 14.4303 5.07562 14.1568 4.80213C13.8834 4.52864 13.5124 4.375 13.1257 4.375C10.805 4.375 8.57941 5.29687 6.93847 6.93781C5.29752 8.57876 4.37565 10.8044 4.37565 13.125V27.7083C4.37565 28.4819 4.68294 29.2237 5.22992 29.7707C5.77691 30.3177 6.51877 30.625 7.29232 30.625H11.6673Z" fill="#059784"/>
<path d="M27.7083 30.625C28.4819 30.625 29.2237 30.3177 29.7707 29.7707C30.3177 29.2237 30.625 28.4819 30.625 27.7083V18.9583C30.625 18.1848 30.3177 17.4429 29.7707 16.8959C29.2237 16.349 28.4819 16.0417 27.7083 16.0417C27.3216 16.0417 26.9506 15.888 26.6771 15.6145C26.4036 15.341 26.25 14.9701 26.25 14.5833V13.125C26.25 12.3515 26.5573 11.6096 27.1043 11.0626C27.6513 10.5156 28.3931 10.2083 29.1667 10.2083C29.5534 10.2083 29.9244 10.0547 30.1979 9.7812C30.4714 9.50771 30.625 9.13677 30.625 8.75V5.83333C30.625 5.44656 30.4714 5.07562 30.1979 4.80213C29.9244 4.52864 29.5534 4.375 29.1667 4.375C26.846 4.375 24.6204 5.29687 22.9795 6.93781C21.3385 8.57876 20.4167 10.8044 20.4167 13.125V27.7083C20.4167 28.4819 20.724 29.2237 21.2709 29.7707C21.8179 30.3177 22.5598 30.625 23.3333 30.625H27.7083Z" fill="#059784"/>
</svg>
